<svg id="Capa_1" enable-background="new 0 0 512 512" height="512" viewBox="0 0 512 512" width="512" xmlns="http://www.w3.org/2000/svg"><g><g><path d="m502 322v60c-13.117 0-279.564 0-306 0v-60z" fill="#ffda8f"/><circle cx="472" cy="40" fill="#ffda8f" r="30"/><path d="m472 160c16.57 0 30 13.43 30 30s-13.43 30-30 30h-90c-16.57 0-30-13.43-30-30s13.43-30 30-30c0-16.57 13.43-30 30-30s30 13.43 30 30z" fill="#eefaff"/><path d="m352 40c16.57 0 30 13.43 30 30s-13.43 30-30 30h-90c-16.57 0-30-13.43-30-30s13.43-30 30-30h30c0-16.57 13.43-30 30-30s30 13.43 30 30z" fill="#eefaff"/><path d="m100 280c-49.71 0-90-30.44-90-105s40.29-165 90-165 90 90.44 90 165-40.29 105-90 105z" fill="#a7e8a6"/></g><g><path d="m502 312h-306c-5.523 0-10 4.478-10 10v60c0 5.522 4.477 10 10 10h20v40h-20c-5.523 0-10 4.478-10 10s4.477 10 10 10h20v40h-106v-202.404c61.802-4.931 90-52.863 90-114.596 0-65.999-36.28-175-100-175-63.359 0-100 108.237-100 175 0 61.769 28.225 109.667 90 114.596v202.404h-80c-5.523 0-10 4.478-10 10s4.477 10 10 10h492c5.523 0 10-4.478 10-10s-4.477-10-10-10h-20v-40h20c5.523 0 10-4.478 10-10s-4.477-10-10-10h-20v-40h20c5.523 0 10-4.478 10-10v-60c0-5.522-4.477-10-10-10zm-482-137c0-52.118 29.975-155 80-155 49.878 0 80 102.514 80 155 0 57.177-24.757 90.368-70 94.541v-75.398l27.071-27.071c3.905-3.905 3.905-10.237 0-14.143-3.905-3.904-10.237-3.904-14.143 0l-22.928 22.928-22.929-22.929c-3.905-3.904-10.237-3.904-14.143 0-3.905 3.905-3.905 10.237 0 14.143l27.072 27.072v75.398c-45.243-4.173-70-37.364-70-94.541zm442 257h-67.999c-5.523 0-10 4.478-10 10s4.477 10 10 10h67.999v40h-226v-40h68c5.523 0 10-4.478 10-10s-4.477-10-10-10h-68v-40h226zm30-60h-286v-40h286z"/><path d="m472 0c-22.056 0-40 17.944-40 40s17.944 40 40 40 40-17.944 40-40-17.944-40-40-40zm0 60c-11.028 0-20-8.972-20-20s8.972-20 20-20 20 8.972 20 20-8.972 20-20 20z"/><path d="m472 150h-21.266c-4.451-17.233-20.13-30-38.734-30-18.968 0-34.895 13.272-38.983 31.017-17.745 4.088-31.017 20.015-31.017 38.983 0 22.056 17.944 40 40 40h90c22.056 0 40-17.944 40-40s-17.944-40-40-40zm0 60h-90c-11.028 0-20-8.972-20-20s8.972-20 20-20c5.523 0 10-4.478 10-10 0-11.028 8.972-20 20-20s20 8.972 20 20c0 5.522 4.477 10 10 10h30c11.028 0 20 8.972 20 20s-8.972 20-20 20z"/><path d="m352 110c22.056 0 40-17.944 40-40 0-18.968-13.272-34.895-31.017-38.983-4.088-17.745-20.015-31.017-38.983-31.017-18.604 0-34.283 12.767-38.734 30h-21.266c-22.056 0-40 17.944-40 40s17.944 40 40 40zm-110-40c0-11.028 8.972-20 20-20h30c5.523 0 10-4.478 10-10 0-11.028 8.972-20 20-20s20 8.972 20 20c0 5.522 4.477 10 10 10 11.028 0 20 8.972 20 20s-8.972 20-20 20h-90c-11.028 0-20-8.972-20-20z"/><circle cx="349.001" cy="442" r="10"/></g></g></svg>