<svg id="_x33_0" enable-background="new 0 0 64 64" height="512" viewBox="0 0 64 64" width="512" xmlns="http://www.w3.org/2000/svg"><g><g><g><path d="m62 43.54v2.46h-10v-5l3-4 2.35.59c1.08.27 2.07.83 2.85 1.61 1.15 1.15 1.8 2.71 1.8 4.34z" fill="#4fc1e9"/></g><g><path d="m52 41v5h-10v-2.46c0-1.1.3-2.18.85-3.11.26-.45.58-.86.95-1.23.78-.78 1.77-1.34 2.85-1.61l2.35-.59z" fill="#4fc1e9"/></g><g><path d="m7 56 3 6h-8v-.9c0-2.38 1.68-4.44 4.02-4.9z" fill="#fcd770"/></g><g><path d="m18 61.1v.9h-8l3-6 .98.2c2.34.46 4.02 2.52 4.02 4.9z" fill="#fcd770"/></g><g><path d="m60 24v.75c0 .83-.13 1.65-.39 2.43-.4 1.2-1.09 2.27-2 3.14l-.71.68c.07-.32.1-.66.1-1v-2.28c0-.43-.28-.81-.68-.95-1.53-.51-2.91-1.36-4.05-2.5l-.27-.27-.27.27c-1.14 1.14-2.52 1.99-4.05 2.5-.4.14-.68.52-.68.95v2.28c0 .34.03.68.1 1l-.71-.68c-.91-.87-1.6-1.94-2-3.14-.26-.78-.39-1.6-.39-2.43v-.75c0-1.3.42-2.56 1.2-3.6 1.13-1.51 2.91-2.4 4.8-2.4h4c.94 0 1.86.22 2.68.63.83.41 1.56 1.01 2.12 1.77.78 1.04 1.2 2.3 1.2 3.6z" fill="#656d78"/></g><g><path d="m16.37 45.32c.41.82.63 1.74.63 2.68 0 .64-.25 1.25-.71 1.71l-2.42 2.29c.09-.32.13-.65.13-1v-2l-4-2-4 2v2c0 .35.04.68.13 1l-2.42-2.29c-.46-.46-.71-1.07-.71-1.71 0-.94.22-1.86.63-2.68.41-.83 1.01-1.56 1.77-2.12 1.04-.78 2.3-1.2 3.6-1.2h2c1.3 0 2.56.42 3.6 1.2.24.18.47.38.68.59.45.45.81.97 1.09 1.53z" fill="#656d78"/></g><g><path d="m17.07 7.9.93 5.1c0 1.81-1.1 3.44-2.79 4.11l-2.21.89-.68-2.74c1.02-.73 1.68-1.92 1.68-3.26v-1.76c0-.76-.43-1.45-1.11-1.79l-2.89-1.45-2.89 1.45c-.68.34-1.11 1.03-1.11 1.79v1.76c0 1.1.45 2.1 1.17 2.83.16.16.33.3.51.43l-.68 2.74-2.21-.89c-.85-.33-1.54-.91-2.03-1.63-.48-.72-.76-1.58-.76-2.48l.93-5.1c.31-1.71 1.21-3.18 2.47-4.23 1.25-1.05 2.86-1.67 4.6-1.67 3.47 0 6.45 2.48 7.07 5.9z" fill="#656d78"/></g><g><path d="m17.93 22.27.01.01c-.53.53-1 1.11-1.43 1.72h-6.51l3-6 .98.2c2.06.41 3.61 2.05 3.95 4.07z" fill="#5cd6b3"/></g><g><path d="m7 18 3 6h-8v-.9c0-2.38 1.68-4.44 4.02-4.9z" fill="#5cd6b3"/></g><g><path d="m57 27.72v2.28c0 .34-.03.68-.1 1-.3 1.48-1.25 2.72-2.55 3.41-.7.38-1.5.59-2.35.59s-1.65-.21-2.35-.59c-.44-.23-.84-.52-1.19-.87-.68-.68-1.16-1.56-1.36-2.54-.07-.32-.1-.66-.1-1v-2.28c0-.43.28-.81.68-.95 1.53-.51 2.91-1.36 4.05-2.5l.27-.27.27.27c1.14 1.14 2.52 1.99 4.05 2.5.4.14.68.52.68.95z" fill="#f0d0b4"/></g><g><path d="m54.35 34.41.65 2.59-3 4-3-4 .65-2.59c.7.38 1.5.59 2.35.59s1.65-.21 2.35-.59z" fill="#f0d0b4"/></g><g><path d="m42 2c2.76 0 5 2.24 5 5s-2.24 5-5 5c-.89 0-1.72-.23-2.44-.64-1.53-.85-2.56-2.49-2.56-4.36 0-2.76 2.24-5 5-5z" fill="#ff826e"/></g><g><path d="m38 52c2.76 0 5 2.24 5 5s-2.24 5-5 5-5-2.24-5-5c0-2.1 1.3-3.91 3.14-4.64.58-.23 1.2-.36 1.86-.36z" fill="#ff826e"/></g><g><circle cx="28" cy="32" fill="#e6e9ed" r="14"/></g><g><path d="m26 40v5.86c-2.21-.32-4.25-1.15-6-2.37v-.01-15.48h12v6l-2 .67-4 1.33z" fill="#cf9e76"/></g><g><path d="m32 28h-12l6-6z" fill="#b27946"/></g><g><path d="m34 33.33-2 .67-2 .67-4 1.33v4 5.86c.65.09 1.32.14 2 .14s1.35-.05 2-.14c1.12-.16 2.19-.45 3.2-.86.27-.11.54-.23.8-.35 1.5-.71 2.85-1.68 4-2.85 0 0 0 0 0-.01v-9.79z" fill="#fcd770"/></g><g><path d="m14 49v2c0 .35-.04.68-.13 1-.21.84-.69 1.57-1.34 2.1-.69.56-1.57.9-2.53.9s-1.84-.34-2.53-.9c-.11-.09-.21-.18-.3-.27-.49-.5-.86-1.13-1.04-1.83-.09-.32-.13-.65-.13-1v-2l4-2z" fill="#f0d0b4"/></g><g><path d="m14 10.24v1.76c0 1.34-.66 2.53-1.68 3.26-.66.46-1.46.74-2.32.74s-1.66-.28-2.32-.74c-.18-.13-.35-.27-.51-.43-.72-.73-1.17-1.73-1.17-2.83v-1.76c0-.76.43-1.45 1.11-1.79l2.89-1.45 2.89 1.45c.68.34 1.11 1.03 1.11 1.79z" fill="#f0d0b4"/></g><g><path d="m12.32 15.26.68 2.74-3 6-3-6 .68-2.74c.66.46 1.46.74 2.32.74s1.66-.28 2.32-.74z" fill="#f0d0b4"/></g><g><path d="m12.53 54.1.47 1.9-3 6-3-6 .47-1.9c.69.56 1.57.9 2.53.9s1.84-.34 2.53-.9z" fill="#f0d0b4"/></g><g><circle cx="4.5" cy="32" fill="#ff826e" r="2.5"/></g></g><g><path d="m23 31h2v2h-2z"/><path d="m27 31h2v2h-2z"/><path d="m41 47h22v-3.458c0-1.907-.743-3.699-2.091-5.047-.915-.915-2.062-1.564-3.316-1.877l-1.769-.442-.328-1.31c1.113-.802 1.938-1.975 2.298-3.337l.508-.484c1.025-.977 1.803-2.203 2.25-3.544.298-.889.448-1.813.448-2.749v-.752c0-1.505-.497-2.997-1.4-4.2-1.315-1.753-3.408-2.8-5.6-2.8h-4c-2.192 0-4.285 1.047-5.6 2.8-.903 1.203-1.4 2.695-1.4 4.2v.752c0 .936.15 1.86.446 2.747.447 1.342 1.226 2.568 2.251 3.545l.508.484c.36 1.363 1.185 2.535 2.298 3.338l-.328 1.31-1.768.442c-1.255.313-2.402.962-3.316 1.877-.205.205-.391.424-.568.648l-1.076-.538c.985-1.996 1.553-4.233 1.553-6.605 0-5.254-2.721-9.878-6.821-12.558l3.807-6.798c.63.226 1.306.356 2.014.356 3.309 0 6-2.691 6-6s-2.691-6-6-6-6 2.691-6 6c0 1.885.876 3.568 2.239 4.669l-3.808 6.801c-1.952-.933-4.127-1.47-6.431-1.47-3.653 0-7.002 1.316-9.607 3.494-.536-1.101-1.396-2.019-2.461-2.621 1.871-.905 3.068-2.77 3.068-4.873l-.943-5.275c-.708-3.897-4.097-6.725-8.057-6.725s-7.349 2.828-8.057 6.725l-.927 5.097-.016.178c0 2.107 1.201 3.975 3.077 4.878-1.85 1.04-3.077 3.012-3.077 5.221v1.901h13.744c-.961 1.812-1.55 3.845-1.693 6h-5.214c-.434-1.441-1.757-2.5-3.337-2.5-1.93 0-3.5 1.57-3.5 3.5s1.57 3.5 3.5 3.5c1.58 0 2.903-1.059 3.337-2.5h5.214c.217 3.268 1.472 6.254 3.456 8.62l-1.181.886c-.043-.034-.081-.073-.125-.106-1.204-.903-2.696-1.4-4.201-1.4h-2c-1.505 0-2.997.497-4.2 1.4-1.753 1.315-2.8 3.408-2.8 5.6 0 .912.355 1.77 1.019 2.433l2.259 2.142c.232.692.599 1.318 1.088 1.838l-.183.731-.359.072c-2.795.558-4.824 3.033-4.824 5.883v1.901h18v-1.901c0-2.85-2.029-5.325-4.823-5.883l-.36-.072-.183-.731c.489-.52.856-1.146 1.088-1.838l2.278-2.161c.645-.645 1-1.502 1-2.414 0-1.455-.47-2.861-1.293-4.03l1.203-.902c2.668 2.433 6.203 3.932 10.09 3.932 1.615 0 3.168-.264 4.627-.738l2.25 5.625c-1.722 1.055-2.877 2.949-2.877 5.113 0 3.309 2.691 6 6 6s6-2.691 6-6-2.691-6-6-6c-.435 0-.859.049-1.268.138l-2.252-5.63c2.42-1.166 4.488-2.948 5.976-5.161l1.06.53c-.337.836-.516 1.736-.516 2.665zm1-44c2.206 0 4 1.794 4 4s-1.794 4-4 4-4-1.794-4-4 1.794-4 4-4zm-37.5 30.5c-.827 0-1.5-.673-1.5-1.5s.673-1.5 1.5-1.5 1.5.673 1.5 1.5-.673 1.5-1.5 1.5zm37.5 23.5c0 2.206-1.794 4-4 4s-4-1.794-4-4 1.794-4 4-4 4 1.794 4 4zm-29-45c0 1.654-1.346 3-3 3s-3-1.346-3-3v-1.764c0-.381.212-.724.553-.894l2.447-1.224 2.447 1.224c.341.17.553.513.553.894zm-4.644 4.7c.518.182 1.065.3 1.644.3s1.126-.118 1.644-.3l.296 1.184-1.94 3.88-1.94-3.88zm-5.355-3.616.91-5.002c.535-2.945 3.096-5.082 6.089-5.082s5.554 2.137 6.089 5.082l.91 5.002c-.033 1.376-.872 2.588-2.156 3.101l-1.15.46-.258-1.03c.959-.911 1.565-2.19 1.565-3.615v-1.764c0-1.143-.635-2.171-1.658-2.683l-3.342-1.671-3.342 1.671c-1.023.511-1.658 1.54-1.658 2.683v1.764c0 1.425.606 2.704 1.565 3.616l-.258 1.03-1.151-.46c-1.283-.514-2.122-1.725-2.155-3.102zm3.215 6.093.231-.046 1.935 3.869h-5.38c.045-1.858 1.383-3.457 3.214-3.823zm5.402 3.823 1.935-3.87.232.046c1.474.295 2.65 1.411 3.055 2.836-.284.317-.554.646-.811.987h-4.411zm.322 32.883-1.94 3.881-1.94-3.88.064-.256c.58.236 1.212.372 1.876.372s1.296-.136 1.876-.372zm1.06-4.883c0 1.654-1.346 3-3 3s-3-1.346-3-3v-1.382l3-1.5 3 1.5zm-6.784 6.177.231-.046 1.935 3.869h-5.38c.045-1.858 1.383-3.457 3.214-3.823zm10.783 3.823h-5.38l1.935-3.87.232.046c1.829.367 3.167 1.966 3.213 3.824zm-1.394-12.019-.605.574v-1.173l-5-2.5-5 2.5v1.173l-.586-.555c-.263-.263-.414-.628-.414-1 0-1.565.748-3.061 2-4 .859-.645 1.925-1 3-1h2c1.075 0 2.141.355 3 1 1.252.939 2 2.434 2 4 0 .372-.151.737-.395.981zm-.605-16.981c0-7.168 5.832-13 13-13s13 5.832 13 13c0 2.535-.74 4.895-2 6.897v-8.284l-6 2v-5.027l-7-7-7 7v13.773c-2.46-2.367-4-5.684-4-9.359zm16 12.637v-9.249l2-.667v9.277c-.641.267-1.312.475-2 .639zm-5.162-9.637h-2.838v2h2v2h-2v2h2v3.637c-1.441-.342-2.788-.921-4-1.7v-13.937h10v4.279zm-3.424-8 3.586-3.586 3.586 3.586zm12.586 7.054 2-.667v7.972c-.612.589-1.282 1.117-2 1.578zm-8 10.895v-8.229l2-.667v8.895c-.331.027-.662.052-1 .052s-.669-.025-1-.051zm30.108-6.391c.903.226 1.728.693 2.387 1.351.97.971 1.505 2.261 1.505 3.633v1.458h-8v-3.667l2.401-3.202zm-11.765-11.691c-.228-.683-.343-1.394-.343-2.115v-.752c0-1.075.355-2.141 1-3 .939-1.252 2.434-2 4-2h4c1.565 0 3.061.748 4 2 .645.859 1 1.925 1 3v.752c0 .72-.115 1.432-.343 2.115-.163.489-.387.955-.657 1.393v-.539c0-.862-.549-1.625-1.367-1.897-1.369-.457-2.632-1.237-3.652-2.257l-.981-.981-.98.98c-1.02 1.02-2.283 1.8-3.652 2.257-.819.273-1.368 1.036-1.368 1.898v.539c-.27-.438-.494-.904-.657-1.393zm2.657.854c1.473-.491 2.845-1.291 4-2.329 1.155 1.038 2.527 1.838 4 2.329v2.279c0 2.206-1.794 4-4 4s-4-1.794-4-4zm4 8.279c.576 0 1.132-.086 1.659-.239l.255 1.02-1.914 2.552-1.914-2.552.255-1.02c.527.153 1.083.239 1.659.239zm-5.108 2.558 1.706-.427 2.402 3.202v3.667h-8v-1.458c0-1.373.535-2.663 1.505-3.633.659-.658 1.484-1.125 2.387-1.351z"/></g></g></svg>