<svg id="Filled_stroke_Cut_Ex" height="512" viewBox="0 0 512 512" width="512" xmlns="http://www.w3.org/2000/svg" data-name="Filled stroke Cut Ex"><g><g><path d="m24 360h464v40h-464z" fill="#f15a57"/><path d="m40 400h432v88h-432z" fill="#f15a57"/><path d="m40 400h432v24h-432z" fill="#db4f4f"/></g><g><path d="m488 360v-123.639a20 20 0 0 0 -11.056-17.889l-68.944-34.472h-64l-68.944 34.472a20 20 0 0 0 -11.056 17.889v123.639z" fill="#25b1fa"/><path d="m416 192-40 48-40-48.074 16-39.926h48z" fill="#ffd4cf"/><g><path d="m400 152h-48l-8.611 21.489 12.642 8.428a36 36 0 0 0 39.938 0l12.63-8.42z" fill="#fbb8b0"/><path d="m424 72h-96v61.3a20 20 0 0 0 8.906 16.641l28 18.667a20 20 0 0 0 22.188 0l28-18.667a20 20 0 0 0 8.906-16.641z" fill="#ffd4cf"/></g><path d="m412 32h-20s-8.954-8-20-8h-60v28a20 20 0 0 0 20 20h100v-20a20 20 0 0 0 -20-20z" fill="#fdc069"/><path d="m352 312h24a0 0 0 0 1 0 0v48a0 0 0 0 1 0 0h-64a0 0 0 0 1 0 0v-8a40 40 0 0 1 40-40z" fill="#ffd4cf"/><path d="m480.522 211.317-60.222-30.112-7.933-19.833 7.167-4.778a27.944 27.944 0 0 0 12.466-23.294v-53.3a8 8 0 0 0 8-8v-20a28.032 28.032 0 0 0 -28-28h-20c-.138 0-.276 0-.412.01a27.912 27.912 0 0 0 -19.588-8.01h-60a8 8 0 0 0 -8 8v28a28.035 28.035 0 0 0 16 25.3v56a27.944 27.944 0 0 0 12.468 23.3l7.16 4.773-7.956 19.853-31.25 15.625 7.156 14.31 24.022-12.017 38.252 45.973a8 8 0 0 0 6.148 2.883 8 8 0 0 0 6.146-2.878l38.3-45.956 52.924 26.461a11.936 11.936 0 0 1 6.63 10.734v27.639h16v-27.639a27.847 27.847 0 0 0 -15.478-25.044zm-80.522-171.317h12a12.013 12.013 0 0 1 12 12v12h-24zm-80-8h52a12.013 12.013 0 0 1 12 12v20h-52a12.013 12.013 0 0 1 -12-12zm16 101.3v-53.3h80v53.3a11.978 11.978 0 0 1 -5.343 9.985l-28 18.666a11.971 11.971 0 0 1 -13.314 0l-28-18.667a11.978 11.978 0 0 1 -5.343-9.984zm40 94.2-30.8-37.025 8.031-20.039 7.237 4.825a27.928 27.928 0 0 0 31.064 0l7.228-4.819 8.041 20.1z"/></g><g><g><path d="m301.04 360h-236.457a12.446 12.446 0 0 1 -11.763-10l-26.1-148c-.974-5.523 2.714-10 8.237-10h236.46a12.446 12.446 0 0 1 11.763 10l26.1 148c.971 5.523-2.717 10-8.24 10z" fill="#4d4d4d"/><ellipse cx="167.295" cy="272" fill="#fdc069" rx="43.954" ry="52.418" transform="matrix(.675 -.738 .738 .675 -146.288 211.687)"/><rect fill="#999" height="32" rx="16" width="192" x="72" y="256"/></g><path d="m124.696 288h-32l-12.696 72h32z" fill="#999"/><path d="m240 288h-32l-12.696 72h32z" fill="#999"/><path d="m480 280v72h-96v-32h56v-16h-73.052l23.708-35.562-13.312-8.876-29.76 44.64a48.018 48.018 0 0 0 -34.725 20.043l-21.8-123.634a20.493 20.493 0 0 0 -19.642-16.611h-236.457a16.387 16.387 0 0 0 -12.638 5.732 16.643 16.643 0 0 0 -3.477 13.657l26.1 148c.037.2.076.408.119.611h-21.064a8 8 0 0 0 -8 8v40a8 8 0 0 0 8 8h8v40h16v-40h416v72h-416v-16h-16v24a8 8 0 0 0 8 8h432a8 8 0 0 0 8-8v-80h8a8 8 0 0 0 8-8v-120zm-128 40h16v32h-48a32.036 32.036 0 0 1 32-32zm-291.3 28.611-26.1-148a1.519 1.519 0 0 1 -.016-.569 1.4 1.4 0 0 1 .376-.042h236.457a4.471 4.471 0 0 1 3.885 3.389l26.1 148a1.519 1.519 0 0 1 .016.569 1.4 1.4 0 0 1 -.374.042h-64.2l9.874-56h1.282a24 24 0 0 0 0-48h-33.65c-12.145-19.314-33.88-32-55.519-32-21.924 0-39.6 12.6-45.864 32h-24.967a24 24 0 0 0 -4.755 47.527l-9.958 56.473h-8.7a4.471 4.471 0 0 1 -3.887-3.389zm60.834 3.389 7.838-44.453c12.412 12.665 29.423 20.453 46.386 20.453a52.088 52.088 0 0 0 17.586-2.948l-4.752 26.948zm126.466-88a8 8 0 0 1 0 16h-160a8 8 0 0 1 0-16zm-117.732-16c5.266-9.957 15.674-16 28.563-16s25.9 6.1 35.347 16zm66.614 56.982c-5.674 4.595-12.953 7.018-21.124 7.018-12.9 0-25.9-6.1-35.349-16h58.057zm-97.474-8.982h15.753l-9.874 56h-15.753zm115.305 0h15.753l-9.874 56h-15.753zm265.287 96h-448v-24h448z"/></g><g><path d="m270 24h-220a10 10 0 0 0 -10 10v92a10 10 0 0 0 10 10h34.8l19.2 24 19.2-24h146.8a10 10 0 0 0 10-10v-92a10 10 0 0 0 -10-10z" fill="#f2f2f2"/><path d="m104 168a8 8 0 0 1 -6.247-3l-16.8-21h-30.953a18.021 18.021 0 0 1 -18-18v-92a18.021 18.021 0 0 1 18-18h38v16h-38a2 2 0 0 0 -2 2v92a2 2 0 0 0 2 2h34.8a8 8 0 0 1 6.247 3l12.953 16.194 12.953-16.194a8 8 0 0 1 6.247-3h146.8a2 2 0 0 0 2-2v-92a2 2 0 0 0 -2-2h-166v-16h166a18.021 18.021 0 0 1 18 18v92a18.021 18.021 0 0 1 -18 18h-142.955l-16.8 21a8 8 0 0 1 -6.245 3z"/><circle cx="96" cy="80" fill="#fdc069" r="24"/><path d="m136 56 32 48h-64z" fill="#25b1fa"/><path d="m174.656 99.562-32-48a8 8 0 0 0 -13.312 0l-6.929 10.394a31.974 31.974 0 1 0 -21.051 49.6 8 8 0 0 0 2.636.444h64a8 8 0 0 0 6.656-12.438zm-94.656-19.562a16 16 0 0 1 31.85-2.2l-11.786 17.682a16.023 16.023 0 0 1 -20.064-15.482zm38.948 16 17.052-25.578 17.052 25.578z"/><path d="m180.438 78.656-8.876-13.312 24-16a7.993 7.993 0 0 1 4.438-1.344h56v16h-53.578z"/><path d="m199.83 80.017h56.17v16h-56.17z"/></g></g></svg>